<?xml version="1.0" standalone="no"?>
<svg viewBox="0 0 200 200" xmlns="http://www.w3.org/2000/svg">
  <path fill="#304A9A" d="M42.9,-75.2C54.7,-67.5,62.8,-54.2,68.9,-40.7C75,-27.3,79.2,-13.6,78.3,-0.5C77.4,12.6,71.4,25.2,64.7,37.7C58,50.1,50.6,62.5,39.7,69.9C28.8,77.3,14.4,79.7,-0.6,80.8C-15.7,81.9,-31.3,81.6,-42.7,74.5C-54.1,67.4,-61.2,53.4,-66.8,39.8C-72.5,26.3,-76.8,13.1,-79.1,-1.3C-81.4,-15.8,-81.8,-31.6,-74.8,-42.9C-67.7,-54.1,-53.3,-60.7,-39.6,-67.4C-25.9,-74.1,-13,-80.9,1.3,-83.1C15.5,-85.3,31.1,-83,42.9,-75.2Z" transform="translate(100 100)" />
</svg>
